<svg width="148" height="122" viewBox="0 0 148 122" fill="none" xmlns="http://www.w3.org/2000/svg">
<path d="M31.1002 40.8546C35.2182 40.4985 38.6332 38.0051 41.345 33.4255C42.5001 32.1025 45.463 31.3901 50.2339 31.3901C55.0048 31.3901 52.4938 31.3901 53.7995 31.4919C47.3714 45.7396 42.8516 55.2041 40.2402 59.7838C37.6288 64.3634 34.5152 68.2306 30.8993 71.2837C29.6439 72.4032 27.6853 73.6244 25.1241 74.9983C22.5629 76.3722 19.4493 77.2372 15.7833 77.5934C15.5824 77.5934 15.3313 77.5934 15.03 77.5934C14.3269 77.5934 13.2722 77.4916 11.8661 77.2881C10.46 77.0845 8.7525 76.3722 6.79393 75.1001C6.64327 74.9983 6.14106 74.5912 5.33755 73.8279C4.53404 73.0647 3.68032 72.047 2.77636 70.6731C1.87241 69.2992 1.26977 67.6709 0.918231 65.6864C0.817792 64.9231 0.767578 64.1598 0.767578 63.3966C0.767578 61.2085 1.37021 58.8678 2.52526 56.3745C3.68032 53.8811 5.6891 51.6931 8.55162 49.7595C8.45118 50.3701 8.40097 50.9807 8.40097 51.5913C8.40097 52.9143 8.65205 54.3391 9.20447 55.8656C9.75688 57.3922 10.7111 58.7152 12.1674 59.9364C13.674 61.0559 15.281 61.6156 16.9885 61.6156H18.3444C19.2484 61.6156 20.4034 61.3612 21.8598 60.8523C23.3162 60.3435 24.421 59.8855 25.1241 59.5293C27.4342 58.4099 29.3927 56.9851 30.9496 55.2041C32.5064 53.474 33.8121 51.6422 34.8165 49.6577C31.4015 51.2351 27.7355 51.9984 23.8686 51.9984C20.0017 51.9984 21.7092 51.9475 20.6043 51.8457C19.5999 51.744 18.2942 51.4387 16.5868 50.9807C14.9295 50.5227 13.222 49.5559 11.5648 48.1312C11.0124 47.6732 10.3595 46.9099 9.60622 45.9431C8.35073 44.0604 7.54724 42.1268 7.24592 40.1423C7.09526 39.0228 6.99482 37.9542 6.99482 36.8856C6.99482 35.8171 7.04504 35.0538 7.24592 33.8326C7.39658 32.6113 7.59745 31.4919 7.89877 30.4233C8.7525 26.8614 10.3093 23.2485 12.6194 19.5848C14.9295 15.9211 17.7418 12.5628 21.0061 9.56056C24.2704 6.55836 27.7857 4.21766 31.502 2.64023C34.2138 1.46988 36.8755 0.910156 39.4869 0.910156C42.0983 0.910156 41.4957 1.01193 42.4499 1.16458C43.0023 1.21546 43.7556 1.419 44.7097 1.67343C45.7141 1.97874 46.7185 2.43669 47.7731 3.14908C48.8277 3.86147 49.6815 4.87916 50.3845 6.15127C51.0876 7.57605 51.4392 9.10259 51.4392 10.7309C51.4392 12.3592 51.4392 11.7995 51.2885 13.0207C51.1881 14.1911 50.7361 15.7685 49.9326 17.7021C49.1291 19.6357 48.1247 21.3149 47.0198 22.6888C46.6683 23.1468 46.1661 23.6556 45.5635 24.2662C44.9608 24.8769 44.1071 25.4366 43.1027 25.9454C41.6966 26.6069 40.2904 26.9122 38.8843 26.9122C37.4781 26.9122 37.6288 26.8105 36.4737 26.6069C35.3187 26.4034 34.1636 25.7419 32.9583 24.6224C32.3055 24.0118 31.8033 23.3503 31.4517 22.7397C31.7531 22.4853 32.6068 21.7729 34.013 20.5008C35.4191 19.2795 36.8755 17.8039 38.3318 16.2264C39.7882 14.5981 40.6922 13.1734 41.0939 11.8504C41.0939 11.7486 41.1441 11.4942 41.2446 11.0871C41.2446 10.8836 41.2446 10.68 41.2446 10.4765C41.2446 10.2729 41.2446 9.96762 41.1944 9.61143C41.1441 9.25524 40.9935 8.89904 40.6922 8.59373C40.5415 8.44108 40.3909 8.33932 40.19 8.23755C40.0393 8.13578 39.8887 8.0849 39.7882 8.03402H39.6376C39.4869 7.93225 39.286 7.88135 39.0851 7.88135H38.4323C37.7292 7.88135 37.0764 7.98312 36.4235 8.13578C35.8209 8.28843 35.3187 8.49197 34.9671 8.64462L34.4147 8.94993C33.5108 9.30613 32.0544 10.3238 29.9452 12.1048C28.7901 13.0207 27.384 14.4964 25.7267 16.5318C25.2245 17.1424 24.5717 18.1092 23.8184 19.3813C23.0651 20.6534 22.362 22.2308 21.7594 24.1645C21.2572 25.6401 20.8554 27.4211 20.6545 29.5074C20.6545 29.8635 20.6043 30.2197 20.6043 30.5759C20.6043 32.306 21.0563 34.087 22.0105 35.9188C22.3118 36.4277 22.6131 36.9365 23.0149 37.4963C23.4166 38.056 23.969 38.6157 24.7223 39.1246C25.9276 39.8878 27.1329 40.3458 28.2879 40.4476C28.9408 40.4476 29.4932 40.4985 30.0456 40.4985C30.598 40.4985 30.7989 40.4985 31.1002 40.4985V40.8546Z" fill="#A7E043"/>
<path d="M74.8917 62.0741C75.0926 62.532 75.1428 62.9391 75.1428 63.2953V63.448C75.1428 63.855 75.0424 64.1603 74.9921 64.2621C74.6908 64.8727 74.2389 65.6869 73.5358 66.7555C73.1842 67.3661 72.5816 68.1802 71.7781 69.2997C70.9746 70.4192 70.0706 71.5386 68.9658 72.6581C67.9112 73.7775 66.7059 74.7444 65.4504 75.4567C64.446 76.0165 63.3914 76.3218 62.3368 76.3218C61.2822 76.3218 61.7844 76.3218 61.5333 76.3218C60.4787 76.1182 59.5245 75.6603 58.6205 74.9479C57.7166 74.2355 57.114 73.3705 56.7122 72.3528C56.5113 71.5895 56.4109 70.8771 56.4109 70.2156C56.4109 69.5541 56.4109 69.7068 56.4109 69.4523C56.4109 68.7908 56.6118 68.0276 56.8629 67.2643C57.0637 66.6537 57.4153 65.8395 57.8673 64.8727C58.0179 64.5674 58.1686 64.2621 58.3192 63.9568C58.6707 63.2444 59.0725 62.532 59.424 61.8705C59.876 60.8019 60.1271 59.8351 60.1271 59.0719C60.1271 58.3086 59.9765 57.8506 59.6249 57.3418C59.5245 57.24 59.3738 57.0365 59.1227 56.8329C58.8716 56.6294 58.5703 56.4259 58.1686 56.2223C57.817 56.0697 57.5659 55.9679 57.2646 55.8661L52.2427 66.0939C50.5854 69.5032 48.9281 72.9634 47.2709 76.3727C44.3582 76.0674 42.4498 74.7444 41.4956 72.3019C41.2948 71.6404 41.1943 71.0298 41.1943 70.47C41.1943 69.9103 41.1943 69.9103 41.2948 69.4523C41.3952 68.9944 41.4957 68.5873 41.6463 68.282C43.7053 64.0586 45.8145 59.8351 47.8735 55.6117L54.1008 42.9414C54.3017 43.0432 54.7034 43.2467 55.306 43.552C55.9087 43.8573 56.5113 44.3662 57.1642 44.9768C57.817 45.6383 58.3694 46.4525 58.8214 47.4702C59.1729 48.3352 59.3236 49.0985 59.3738 49.8108C59.3738 50.1161 59.3738 50.3706 59.3738 50.6759C59.3738 50.9812 59.3738 51.2865 59.3738 51.5409V51.7954C59.3738 51.8971 59.3738 52.0498 59.3738 52.2533C59.3738 52.4569 59.424 52.7113 59.5747 53.0166C59.5747 53.1184 59.7254 53.3219 59.876 53.5254C60.0267 53.729 60.2778 53.9834 60.6293 54.2887C60.9307 54.5431 61.232 54.6958 61.5333 54.7976C61.8346 54.8993 62.1359 55.0011 62.4875 55.1029C62.7888 55.1537 63.1403 55.2555 63.5421 55.4082C64.5465 55.6626 65.4504 56.1205 66.2037 56.6803C67.0072 57.3418 67.5094 58.0542 67.8107 58.8174C68.112 59.5298 68.2627 60.0387 68.2627 60.2931C68.2627 60.3949 68.3129 60.6493 68.3129 61.0564C68.3129 61.1581 68.3129 61.3108 68.3129 61.4126C68.3129 61.7179 68.3129 62.0741 68.2125 62.4811C67.9614 63.6515 67.6099 64.6183 67.1579 65.4325C66.9068 65.8904 66.7059 66.2975 66.6054 66.7046C66.5552 66.9081 66.505 67.1117 66.505 67.3152C66.505 67.5187 66.505 67.6714 66.5552 67.824C66.5552 67.9767 66.6557 68.0785 66.7561 68.1293C66.9068 68.2311 67.0574 68.2311 67.2081 68.2311C67.4592 68.2311 67.861 68.1293 68.3129 67.8749C68.7649 67.6205 69.2671 67.2643 69.7693 66.8572C69.92 66.7046 70.1208 66.501 70.3719 66.1448C70.623 65.7886 71.0248 65.2289 71.527 64.4656C71.6274 64.313 71.7781 64.1603 71.8785 63.9568C72.3807 63.2444 72.9331 62.2267 73.586 60.8019C73.7366 60.8528 73.8873 61.0055 74.1384 61.2599C74.3895 61.4634 74.5904 61.7688 74.7913 62.1758L74.8917 62.0741Z" fill="#A7E043"/>
<path d="M97.792 60.7001C97.8924 60.7001 98.0933 60.8527 98.2941 61.0054C98.5452 61.158 98.7461 61.4125 98.8968 61.7178C99.0977 62.1248 99.1981 62.481 99.1981 62.8372C99.1981 63.1934 99.1981 63.397 99.1479 63.4987C98.6457 64.3638 97.9426 65.3815 97.0387 66.5009C96.1347 67.6713 95.0299 68.8416 93.7241 70.0629C93.1215 70.5717 92.4184 71.1823 91.5647 71.8947C90.711 72.6071 89.7066 73.2686 88.5515 73.9301C87.3965 74.5916 86.141 75.1513 84.7851 75.5584C83.3789 76.0164 81.9225 76.2199 80.2653 76.2199C77.8548 76.2199 75.8962 75.8637 74.3896 75.1004C72.883 74.3372 71.7782 73.3704 71.0751 72.0982C70.372 70.8261 70.0205 69.4522 70.0205 67.9257C70.0205 66.3992 70.5227 63.804 71.5773 61.7686C72.6319 59.7333 73.9879 57.9014 75.6953 56.2731C77.4028 54.6448 79.2609 53.3218 81.3701 52.3041C83.4291 51.2864 85.5384 50.7776 87.6476 50.6758C88.0493 50.6758 88.5013 50.6758 88.9031 50.6758C90.9119 50.6758 92.4687 51.1337 93.5735 52.0497C94.6783 52.9656 95.2307 54.3904 95.2307 56.2222C95.2307 58.1049 94.6783 59.6315 93.6237 60.8527C92.5189 62.074 91.163 63.0917 89.5057 64.0076C87.8485 64.8726 86.2414 65.5341 84.5842 65.9412C83.1278 66.2974 81.8723 66.45 80.8679 66.45C81.0186 66.8062 81.2697 67.0606 81.5208 67.366C82.2239 67.9766 82.9269 68.3837 83.7305 68.4854C84.534 68.6381 85.1868 68.689 85.6388 68.689C87.3965 68.689 88.9031 68.2819 90.259 67.4677C91.6149 66.6536 92.7198 65.8394 93.6739 65.0253C93.7242 64.9744 93.8246 64.9235 93.8748 64.8726C94.9797 64.0076 96.2854 62.6337 97.792 60.7509V60.7001ZM87.5471 54.543C86.4423 54.543 85.2873 55.0519 84.2327 56.0187C83.1278 56.9855 82.2239 58.2067 81.5208 59.6315C80.8177 61.0563 80.416 62.481 80.3657 63.9058C81.119 63.8549 81.9226 63.6514 82.8265 63.397C83.7305 63.1425 84.6846 62.6846 85.6388 62.0231C86.2917 61.616 87.045 60.9545 87.8485 60.1912C88.652 59.428 89.1039 58.4103 89.2044 57.189C89.2044 57.0872 89.2044 57.0364 89.2044 56.9346C89.2044 56.8328 89.2044 56.6293 89.2044 56.4257C89.2044 56.1713 89.104 55.9169 89.0035 55.6116C88.9031 55.3063 88.652 55.0519 88.3507 54.8483H88.2C88.0995 54.7466 87.9991 54.6957 87.9489 54.6448C87.8987 54.5939 87.748 54.6448 87.5974 54.6448L87.5471 54.543Z" fill="#A7E043"/>
<path d="M120.341 60.7001C120.441 60.7001 120.642 60.8527 120.843 61.0054C121.094 61.158 121.295 61.4125 121.446 61.7178C121.646 62.1248 121.747 62.481 121.747 62.8372C121.747 63.1934 121.747 63.397 121.697 63.4987C121.195 64.3638 120.491 65.3815 119.587 66.5009C118.684 67.6713 117.579 68.8416 116.273 70.0629C115.67 70.5717 114.967 71.1823 114.114 71.8947C113.26 72.6071 112.255 73.2686 111.1 73.9301C109.945 74.5916 108.69 75.1513 107.334 75.5584C105.978 75.9655 104.471 76.2199 102.814 76.2199C100.404 76.2199 98.445 75.8637 96.9384 75.1004C95.4319 74.3372 94.327 73.3704 93.624 72.0982C92.9209 70.8261 92.5693 69.4522 92.5693 67.9257C92.5693 66.3992 93.0716 63.804 94.1262 61.7686C95.1808 59.7333 96.5367 57.9014 98.2441 56.2731C99.9516 54.6448 101.81 53.3218 103.919 52.3041C106.028 51.2864 108.087 50.7776 110.196 50.6758C110.598 50.6758 111.05 50.6758 111.452 50.6758C113.461 50.6758 115.018 51.1337 116.122 52.0497C117.227 52.9656 117.78 54.3904 117.78 56.2222C117.78 58.1049 117.227 59.6315 116.173 60.8527C115.068 62.074 113.712 63.0917 112.055 64.0076C110.397 64.8726 108.79 65.5341 107.133 65.9412C105.677 66.2974 104.421 66.45 103.417 66.45C103.567 66.8062 103.819 67.0606 104.07 67.366C104.773 67.9766 105.476 68.3837 106.279 68.4854C107.083 68.5872 107.736 68.689 108.188 68.689C109.945 68.689 111.452 68.2819 112.808 67.4677C114.164 66.6536 115.269 65.8394 116.223 65.0253C116.273 64.9744 116.373 64.9235 116.424 64.8726C117.528 64.0076 118.834 62.6337 120.341 60.7509V60.7001ZM110.096 54.543C108.991 54.543 107.836 55.0519 106.781 56.0187C105.677 56.9855 104.773 58.2067 104.07 59.6315C103.367 61.0563 102.965 62.481 102.915 63.9058C103.668 63.8549 104.471 63.6514 105.375 63.397C106.279 63.1425 107.233 62.6846 108.188 62.0231C108.841 61.616 109.594 60.9545 110.397 60.1912C111.201 59.3771 111.653 58.4103 111.753 57.189C111.753 57.0872 111.753 57.0364 111.753 56.9346C111.753 56.8328 111.753 56.6293 111.753 56.4257C111.753 56.1713 111.653 55.9169 111.552 55.6116C111.452 55.3063 111.201 55.0519 110.899 54.8483H110.749C110.648 54.7466 110.548 54.6957 110.498 54.6448C110.448 54.5939 110.297 54.6448 110.146 54.6448L110.096 54.543Z" fill="#A7E043"/>
<path d="M147.058 62.0727C147.208 62.5307 147.309 62.9378 147.309 63.294V63.4466C147.309 63.8537 147.208 64.1081 147.158 64.2608C146.857 64.8714 146.405 65.6856 145.702 66.7541C145.35 67.3648 144.748 68.1789 143.994 69.2984C143.191 70.4178 142.287 71.5373 141.182 72.6568C140.127 73.7762 138.922 74.743 137.667 75.4554C136.662 76.0152 135.658 76.3205 134.603 76.3205C133.549 76.3205 134.051 76.3205 133.8 76.3205C132.745 76.1169 131.791 75.659 130.887 74.9466C129.983 74.2342 129.38 73.3692 128.979 72.3515C128.727 71.5882 128.627 70.9267 128.627 70.2652C128.627 69.6037 128.627 69.7054 128.677 69.451C128.677 68.6369 128.928 67.7718 129.23 66.9577C129.531 66.1435 130.033 65.0241 130.736 63.6502C131.439 62.2763 130.937 63.2431 131.038 63.0904C131.138 62.836 131.289 62.5816 131.389 62.378C132.243 60.5971 132.846 59.325 133.197 58.4599C133.398 58.002 133.448 57.6458 133.448 57.3405C133.448 57.0352 133.398 56.9334 133.247 56.7807C133.147 56.679 132.996 56.5772 132.846 56.5772C132.695 56.5772 132.544 56.5772 132.394 56.5772H132.343C131.339 56.5772 130.234 57.1878 129.129 58.409C128.928 58.867 128.778 59.2232 128.577 59.5285C126.769 63.2431 124.911 66.9068 123.103 70.6214C122.5 71.8426 121.898 73.1147 121.295 74.336C121.144 74.6413 120.994 74.9466 120.843 75.3028C120.642 75.7098 120.491 76.066 120.291 76.4731H119.939C119.788 76.4731 119.688 76.4731 119.537 76.4731C118.081 76.4731 116.876 75.9643 115.821 74.9975C115.62 74.7939 115.419 74.5904 115.218 74.336C114.817 73.7762 114.566 73.2674 114.465 72.7585C114.365 72.2497 114.314 71.8426 114.314 71.5373C114.314 70.8758 114.365 70.3161 114.465 69.909C114.566 69.5019 114.616 69.2984 114.666 69.1966C116.173 66.1944 117.629 63.2431 119.136 60.2409L123.605 51.2343C123.906 50.7255 124.158 50.1657 124.409 49.606C124.409 49.5042 124.509 49.4533 124.509 49.3516C127.271 50.5728 128.979 52.5064 129.531 55.0507C130.083 54.6436 130.786 54.1347 131.64 53.5241C132.494 52.9135 133.398 52.4555 134.201 52.0485C134.553 51.8958 135.055 51.6923 135.808 51.4887C136.411 51.3361 137.064 51.2343 137.817 51.2343H138.018C138.47 51.2343 138.972 51.2343 139.525 51.3361C140.178 51.4378 140.78 51.7431 141.433 52.252C141.935 52.71 142.337 53.1679 142.588 53.6768C142.889 54.1856 143.04 54.6436 143.141 55.0507C143.241 55.4577 143.241 55.7122 143.241 55.8139C143.241 55.9666 143.241 56.1192 143.241 56.221C143.241 56.6281 143.191 57.086 143.09 57.4931C142.94 58.0528 142.638 58.7143 142.237 59.5285C140.931 62.1745 139.876 64.3117 139.023 65.8891C138.872 66.1944 138.721 66.4997 138.571 66.9068C138.52 67.1103 138.47 67.263 138.47 67.4156C138.47 67.5683 138.47 67.7718 138.621 67.9245C138.721 68.0262 138.822 68.128 138.972 68.128C139.123 68.128 139.274 68.128 139.424 68.128C140.328 68.128 141.182 67.6701 141.935 66.805C142.739 65.8891 143.442 64.9732 144.044 63.9046C144.547 63.1922 145.099 62.1236 145.752 60.7497C145.903 60.8515 146.053 61.0042 146.304 61.2077C146.555 61.4112 146.756 61.7165 146.957 62.1236L147.058 62.0727Z" fill="#A7E043"/>
<path d="M97.7421 89.0434C98.0434 89.8575 98.1941 90.7226 98.1941 91.5876C98.1941 92.4527 98.0937 92.8088 97.8928 93.8265C97.6919 94.8442 97.1395 95.9128 96.2355 97.1849C95.3316 98.4571 94.1765 99.4239 92.8206 100.085C91.766 100.543 90.8118 100.798 89.9079 100.849C89.6568 100.849 89.4559 100.849 89.2048 100.849C88.6021 100.849 88.0999 100.849 87.6982 100.747C87.8489 100.747 88.1502 100.9 88.5519 101.103C89.0039 101.307 89.4559 101.612 89.9581 102.07C90.4603 102.528 90.862 103.088 91.2136 103.8C91.4647 104.461 91.6153 105.072 91.6153 105.632C91.6153 106.192 91.6153 105.835 91.6153 106.141C91.6153 106.446 91.5651 106.802 91.4145 107.209C91.2638 107.616 91.2136 107.871 91.1131 108.023C90.5105 109.346 89.5563 110.466 88.1502 111.331C86.744 112.196 85.2375 112.756 83.5802 112.908C83.3291 112.908 83.1282 112.908 82.8771 112.908C81.5212 112.908 80.2155 112.552 79.0604 111.789C78.2569 111.178 77.6041 110.466 77.2023 109.703C76.3988 110.568 75.3442 111.28 74.1389 111.891C73.7874 112.043 73.2852 112.247 72.5319 112.501C71.8288 112.705 71.0253 112.807 70.0209 112.807H69.7698C69.3178 112.807 68.7654 112.756 68.1125 112.654C67.4597 112.552 66.8068 112.247 66.1038 111.789C66.0535 111.789 65.8527 111.585 65.5011 111.28C65.1496 110.975 64.7981 110.517 64.4465 109.957C64.095 109.397 63.7937 108.685 63.643 107.871C63.643 107.565 63.5928 107.26 63.5928 106.904C63.5928 105.937 63.8439 104.97 64.3461 103.902C64.8483 102.833 65.702 101.917 66.9073 101.103C66.9073 101.408 66.857 101.663 66.857 101.917C66.857 103.342 67.4095 104.461 68.4641 105.377C69.2174 105.937 70.0209 106.192 70.8746 106.192C71.7284 106.192 71.2764 106.192 71.8288 106.141C72.3812 106.09 72.9838 105.835 73.6367 105.428C74.1389 105.123 74.5407 104.767 74.7918 104.36C75.0931 104.003 75.2939 103.647 75.3944 103.393C76.0975 101.968 76.7503 100.594 77.4534 99.1694L83.6304 86.4991C82.8269 86.6009 82.0234 86.7536 81.2701 87.008C80.1653 87.4151 79.1609 87.9748 78.1565 88.789C77.1521 89.6031 76.3486 90.519 75.7459 91.6385C75.1935 92.6562 74.8922 93.7757 74.8922 94.946V95.2513C74.9424 96.1672 75.1433 96.9814 75.4446 97.6429C75.7459 98.3044 76.0473 98.8641 76.3486 99.2203C76.1979 99.3221 75.8966 99.4747 75.3442 99.7292C74.842 99.9836 74.1891 100.136 73.4358 100.238C73.235 100.238 73.0843 100.238 72.8834 100.238C72.331 100.238 71.7284 100.136 71.1257 99.8818C70.0209 99.373 69.2174 98.5588 68.7152 97.4902C68.213 96.5234 68.0121 95.5566 68.0121 94.6407C68.0121 93.7248 68.0121 94.4372 68.0121 94.3354C68.1628 92.6562 69.0667 91.0788 70.724 89.654C72.3812 88.2292 74.4402 87.0589 76.901 86.143C79.3617 85.227 81.8727 84.7182 84.4842 84.5146C85.0366 83.3952 85.589 82.2757 86.1414 81.1562C86.2921 81.1562 86.5432 81.3089 86.8445 81.5124C87.196 81.716 87.5475 82.0213 87.9493 82.3775C88.351 82.7846 88.6524 83.2425 88.9537 83.904C89.0541 84.1076 89.1044 84.3111 89.1546 84.5655C90.2594 84.6673 91.3642 84.82 92.5193 85.1253C93.6743 85.4306 94.6787 85.8885 95.5827 86.4991C96.4866 87.1098 97.1897 87.9239 97.6417 88.9925L97.7421 89.0434ZM82.174 108.583C83.078 108.43 83.8313 108.023 84.4842 107.362C85.137 106.7 85.5388 105.886 85.7396 105.021C85.8401 104.716 85.8401 104.36 85.8401 104.054C85.8401 103.495 85.7396 102.935 85.4885 102.375C84.9361 101.256 84.0322 100.492 82.7767 100.034C82.6762 100.238 82.5758 100.492 82.4251 100.696C81.6718 102.273 80.8683 103.851 80.115 105.428C79.9142 105.886 79.5626 106.649 79.0102 107.565C79.8639 108.278 80.7679 108.634 81.7221 108.634C82.6762 108.634 82.0234 108.634 82.174 108.634V108.583ZM89.9581 96.727C90.7616 96.0655 91.4647 95.2004 92.0673 94.1319C92.4691 93.3686 92.7202 92.6053 92.7202 91.7912C92.7202 90.977 92.7202 91.1805 92.6197 90.8752C92.4189 90.0611 91.9669 89.3996 91.3642 88.789C90.7616 88.1783 89.9079 87.7204 89.0039 87.3133C87.2462 90.9261 85.4885 94.5389 83.7309 98.2026C84.1828 98.3044 84.7352 98.3553 85.4383 98.3553H85.5388C86.1916 98.3553 86.8947 98.2535 87.6982 97.9991C88.5017 97.7956 89.255 97.3376 90.0585 96.727H89.9581Z" fill="#F2CB57"/>
<path d="M103.417 104.41C103.517 104.664 103.568 104.919 103.568 105.173C103.568 105.427 103.568 105.275 103.568 105.427C103.568 105.58 103.568 105.682 103.517 105.784C103.316 106.14 103.065 106.649 102.664 107.259C102.463 107.615 102.111 108.124 101.609 108.786C101.107 109.447 100.554 110.109 99.9015 110.77C99.2487 111.432 98.5456 111.992 97.7923 112.449C97.1897 112.806 96.5368 112.958 95.884 112.958C95.2311 112.958 95.5826 112.958 95.432 112.958C94.8293 112.857 94.2267 112.551 93.6743 112.144C93.1219 111.737 92.7703 111.177 92.5193 110.567C92.3686 110.109 92.3184 109.702 92.3184 109.295C92.3184 108.888 92.3184 108.989 92.3184 108.837C92.4188 108.073 92.9712 106.598 94.076 104.461C95.1809 102.323 96.4364 99.881 97.8425 97.1332C97.8927 96.9805 97.9932 96.8788 98.0434 96.7261C98.9474 97.1332 99.6504 97.642 100.203 98.3544C100.755 99.0668 101.057 99.7792 101.107 100.644V100.746C101.107 101.204 101.057 101.611 100.906 102.018C100.755 102.425 100.655 102.68 100.504 102.883C99.7006 104.461 99.098 105.733 98.5958 106.7C98.4954 106.852 98.3949 107.056 98.3447 107.31C98.3447 107.412 98.2945 107.514 98.2945 107.615C98.2945 107.717 98.2945 107.819 98.395 107.921C98.4452 107.972 98.5456 108.023 98.5958 108.023C98.646 108.023 98.7967 108.023 98.8971 108.023C99.4496 108.023 99.9518 107.768 100.404 107.208C100.856 106.649 101.308 106.089 101.659 105.478C101.961 105.071 102.312 104.41 102.664 103.596C102.764 103.596 102.864 103.697 103.015 103.85C103.166 104.003 103.266 104.155 103.417 104.41ZM105.024 94.131C105.024 94.9451 104.723 95.6575 104.17 96.2682C103.618 96.8788 102.915 97.1332 102.111 97.1332C101.308 97.1332 100.605 96.8279 100.052 96.2682C99.4998 95.7084 99.1985 94.996 99.1985 94.131C99.1985 93.266 99.4998 92.6044 100.052 92.0447C100.605 91.485 101.308 91.1797 102.111 91.1797C102.915 91.1797 103.618 91.485 104.17 92.0447C104.723 92.6044 105.024 93.3168 105.024 94.131Z" fill="#F2CB57"/>
<path d="M112.255 95.4027C111.251 97.4889 110.246 99.5243 109.342 101.458C108.941 102.221 108.489 103.239 107.886 104.511C107.283 105.783 106.781 106.75 106.43 107.564C106.43 107.666 106.43 107.768 106.53 107.869C106.58 107.92 106.681 107.971 106.731 108.022C106.831 108.022 106.882 108.022 107.032 108.022C107.585 108.022 108.087 107.768 108.539 107.208C108.991 106.699 109.443 106.088 109.794 105.478C110.096 105.071 110.397 104.409 110.799 103.595C110.899 103.595 111 103.697 111.15 103.85C111.301 104.002 111.401 104.155 111.552 104.409C111.652 104.664 111.753 104.918 111.753 105.122V105.376C111.753 105.529 111.703 105.63 111.652 105.732C111.452 106.088 111.2 106.597 110.799 107.208C110.497 107.717 109.995 108.378 109.292 109.345C108.589 110.261 107.786 111.126 106.831 111.838C105.927 112.551 104.973 112.907 103.969 112.907H103.868C103.868 112.907 103.768 112.907 103.668 112.907C103.567 112.907 103.416 112.907 103.115 112.907C102.864 112.907 102.513 112.805 102.061 112.602C101.609 112.449 101.207 112.144 100.805 111.686C100.353 111.075 100.102 110.414 100.052 109.65V109.498C100.052 108.785 100.253 108.124 100.654 107.462C101.558 105.987 102.362 104.46 103.115 102.883C103.668 101.712 104.22 100.593 104.873 99.4734C105.425 98.4557 106.128 97.1327 106.932 95.4027H103.316V93.4182H107.886C108.388 92.3496 108.941 91.1792 109.593 89.8053C110.196 88.4823 110.698 87.4138 111.05 86.5996C111.2 86.5996 111.452 86.7523 111.803 86.9558C112.155 87.1593 112.506 87.4646 112.908 87.8208C113.31 88.2279 113.611 88.7368 113.912 89.3474C114.113 89.8562 114.214 90.3142 114.264 90.7213C114.264 90.8739 114.264 91.0266 114.264 91.1792C114.264 91.3828 114.264 91.5863 114.264 91.739C114.013 92.2987 113.712 92.8584 113.46 93.4182H117.277V95.4027H112.456H112.255Z" fill="#F2CB57"/>
<path d="M125.262 103.596C125.312 103.596 125.412 103.698 125.563 103.8C125.714 103.901 125.814 104.054 125.915 104.257C126.065 104.512 126.115 104.715 126.115 104.919C126.115 105.123 126.115 105.224 126.115 105.326C125.814 105.835 125.412 106.446 124.86 107.158C124.308 107.87 123.655 108.583 122.851 109.295C122.5 109.6 122.048 109.957 121.546 110.415C121.043 110.872 120.441 111.229 119.738 111.636C119.035 112.043 118.281 112.348 117.478 112.603C116.674 112.857 115.77 113.01 114.766 113.01C113.31 113.01 112.154 112.806 111.251 112.348C110.347 111.89 109.694 111.28 109.242 110.567C108.79 109.855 108.589 108.99 108.589 108.074C108.589 107.158 108.89 105.58 109.543 104.359C110.196 103.138 110.999 102.019 112.004 101.052C113.008 100.085 114.163 99.2708 115.419 98.6602C116.674 98.0495 117.93 97.7442 119.185 97.6934C119.436 97.6934 119.687 97.6934 119.938 97.6934C121.144 97.6934 122.048 97.9478 122.751 98.5075C123.454 99.0672 123.755 99.8814 123.755 101.001C123.755 102.12 123.454 103.036 122.801 103.749C122.148 104.461 121.345 105.072 120.34 105.631C119.336 106.191 118.382 106.547 117.377 106.802C116.524 107.005 115.77 107.107 115.168 107.107C115.268 107.311 115.419 107.463 115.569 107.667C115.971 108.023 116.423 108.277 116.925 108.328C117.428 108.379 117.779 108.481 118.08 108.481C119.135 108.481 120.039 108.226 120.842 107.718C121.646 107.209 122.349 106.751 122.901 106.242C122.901 106.242 123.002 106.191 123.002 106.14C123.655 105.631 124.458 104.817 125.362 103.647L125.262 103.596ZM119.135 99.8814C118.482 99.8814 117.779 100.187 117.126 100.746C116.473 101.306 115.921 102.069 115.469 102.884C115.017 103.698 114.816 104.614 114.766 105.479C115.218 105.479 115.72 105.326 116.222 105.173C116.724 105.021 117.327 104.715 117.93 104.359C118.331 104.105 118.783 103.749 119.235 103.24C119.687 102.731 119.989 102.171 120.039 101.459C120.039 101.459 120.039 101.357 120.039 101.306C120.039 101.255 120.039 101.154 120.039 101.001C120.039 100.848 119.989 100.696 119.938 100.492C119.888 100.288 119.738 100.136 119.537 100.034H119.436C119.386 99.9832 119.336 99.9323 119.286 99.9323C119.235 99.9323 119.185 99.9323 119.085 99.9323L119.135 99.8814Z" fill="#F2CB57"/>
<path d="M101.659 115.451C101.659 115.451 101.408 115.604 100.906 115.858C100.404 116.112 99.7005 116.469 98.7966 116.876C96.9384 117.69 94.2768 118.758 90.9121 119.623C87.5976 120.539 83.58 121.252 79.2611 121.506C74.9422 121.761 70.322 121.557 65.7521 120.743C63.4922 120.387 61.1821 119.827 59.0226 119.165C56.8632 118.453 54.7539 117.639 52.7954 116.672C48.8782 114.738 45.5135 112.296 42.9523 109.904C40.3911 107.513 38.533 105.121 37.378 103.391C36.7753 102.526 36.3736 101.814 36.1225 101.305C35.8714 100.796 35.7207 100.542 35.7207 100.542C35.7207 100.542 35.9718 100.084 36.3736 99.7784C36.7753 99.4222 37.3277 99.2186 37.9304 99.4731C38.1313 99.5239 38.6837 100.593 39.8387 102.221C40.9938 103.849 42.7012 106.088 45.1118 108.429C47.5223 110.719 50.6359 113.11 54.302 114.993C56.1601 115.96 58.1187 116.825 60.1777 117.537C62.2367 118.25 64.3961 118.86 66.5556 119.267L68.2128 119.573C68.7652 119.674 69.3176 119.776 69.87 119.827C70.9749 119.98 72.0797 120.132 73.1846 120.234C74.2894 120.285 75.3942 120.387 76.4488 120.438C77.5034 120.438 78.6083 120.438 79.6629 120.438C83.8813 120.336 87.7482 119.827 91.0627 119.064C94.3772 118.351 97.0389 117.435 98.897 116.723C99.801 116.367 100.554 116.061 101.006 115.858C101.508 115.654 101.76 115.502 101.76 115.502L101.659 115.451Z" fill="#7DBE35"/>
<g style="mix-blend-mode:multiply" opacity="0.6">
<path d="M52.5943 115.858C56.863 118.097 61.5334 119.573 66.3042 120.336C71.0751 121.15 75.9464 121.405 80.7675 120.998C80.1146 121.049 79.4618 120.998 78.7587 120.998C78.1058 120.998 77.4028 120.998 76.6997 120.998C75.9966 120.998 75.3438 120.947 74.6407 120.896C74.2891 120.896 73.9376 120.896 73.5861 120.845C73.2345 120.845 72.883 120.845 72.5315 120.743C71.8284 120.641 71.1253 120.591 70.4223 120.489L69.3676 120.387C69.0161 120.387 68.6646 120.285 68.313 120.184C67.6099 120.031 66.9069 119.929 66.2038 119.776L65.1492 119.573L64.0946 119.318C61.3325 118.657 58.6709 117.741 56.2101 116.672C53.7493 115.553 51.4895 114.281 49.4807 112.856C47.4719 111.431 45.7142 109.956 44.2578 108.531C42.8014 107.055 41.5962 105.681 40.6922 104.46C38.8341 102.018 37.9301 100.338 37.7293 100.237C37.3275 100.084 36.9258 100.135 36.5742 100.288C37.3777 101.967 38.4826 103.544 39.5874 105.02C40.7424 106.496 41.9979 107.92 43.3539 109.192C46.0657 111.788 49.1793 113.976 52.4938 115.706L52.5943 115.858Z" fill="#588325"/>
</g>
<path d="M81.169 48.9956C81.169 48.9956 80.1647 47.6217 81.621 46.9093L81.3699 45.8407C81.3699 45.8407 78.5576 45.4845 77.503 42.7876C76.3982 40.0907 77.1012 37.2412 79.6624 35.3076C82.2236 33.374 86.8439 34.239 89.606 36.2235L89.8068 36.3253C89.8068 36.3253 95.1301 34.8496 98.7961 40.0908L99.0472 40.2943C99.0472 40.2943 102.663 40.7522 102.814 44.0598C102.914 47.3673 100.403 49.5044 97.6411 48.6394L97.3398 49.1482C97.3398 49.1482 98.3944 50.6748 97.9424 51.2854C97.4402 51.896 96.3354 51.9469 96.3354 51.9469L96.8376 50.8783C96.8376 50.8783 93.7239 47.6217 89.154 47.1128C89.154 47.1128 83.5294 46.7058 81.2193 49.0464L81.169 48.9956Z" stroke="#A7E043" stroke-miterlimit="10"/>
</svg>
